<?xml version="1.0" encoding="UTF-8"?>
<svg version="1.1" xmlns="http://www.w3.org/2000/svg" width="518" height="277">
<path d="M0 0 C170.94 0 341.88 0 518 0 C518 91.41 518 182.82 518 277 C347.06 277 176.12 277 0 277 C0 185.59 0 94.18 0 0 Z " fill="#FEFEFE" transform="translate(0,0)"/>
<path d="M0 0 C0.3403125 0.70125 0.680625 1.4025 1.03125 2.125 C4.05073502 8.03548131 7.1383946 12.58491623 11.99609375 17.1015625 C13.98830475 18.98892029 15.73470266 20.96344485 17.5 23.0625 C26.18889467 33.12435771 37.53008559 40.90731253 48 49 C48 48.34 48 47.68 48 47 C49.90549549 45.42470961 51.81846849 43.95564579 53.8125 42.5 C59.33756659 38.36622981 64.4531396 34.00773098 69.5078125 29.3046875 C71.69020375 27.28648869 73.91692301 25.35467979 76.1875 23.4375 C83.98840588 16.59376048 89.40827402 9.30520227 94 0 C110.47509641 -0.81025064 125.92802062 7.12004731 138 18 C153.23199403 31.8472673 163.20637433 48.12846522 164.5390625 69.11328125 C164.88414794 80.87273112 165.09193492 94.63039115 157 104 C148.76339446 112.45204995 140.76093224 116.21265011 129.125 117.6875 C128.30386719 117.80416016 127.48273438 117.92082031 126.63671875 118.04101562 C116.34120804 119.46247069 106.15703519 120.15038327 95.76513672 120.16113281 C94.594245 120.16609772 93.42335327 120.17106262 92.21697998 120.17617798 C88.37120964 120.19069198 84.52548065 120.19758618 80.6796875 120.203125 C79.33953961 120.20586728 77.99939195 120.20872417 76.65924454 120.21169281 C70.34970948 120.22533872 64.04018715 120.23501621 57.73063838 120.2388947 C50.52705101 120.24335075 43.32365571 120.26079579 36.12012661 120.2898953 C30.50172247 120.31177663 24.88337125 120.32161301 19.26492512 120.32293582 C15.93361155 120.32396641 12.60262064 120.33102342 9.27132797 120.34775543 C-3.80054123 120.4086868 -16.70370444 120.19110884 -29.69873047 118.66699219 C-30.69518145 118.55055988 -31.69163242 118.43412758 -32.71827888 118.31416702 C-46.38431198 116.51661996 -55.77208468 112.38140474 -65 102 C-65 101.01 -65 100.02 -65 99 C-65.66 99 -66.32 99 -67 99 C-73.38169183 82.90703799 -72.68729754 64.88473943 -66.13818359 48.89599609 C-62.46371342 40.54388527 -58.19320419 32.75958072 -52 26 C-51.17628906 25.09636719 -50.35257813 24.19273437 -49.50390625 23.26171875 C-43.56135976 17.03258137 -37.50777878 12.19789781 -30 8 C-29.33613281 7.61328125 -28.67226562 7.2265625 -27.98828125 6.828125 C-19.30633517 2.09582735 -9.8824134 -0.66999413 0 0 Z " fill="#4485D7" transform="translate(111,148)"/>
<path d="M0 0 C5.66990115 0.55748749 10.67855865 1.67227985 16.0625 3.5 C31.80044163 8.81174501 49.76965296 9.30748512 64.859375 1.90234375 C67.21917886 0.90760891 69.48073675 0.42721772 72 0 C75.93940202 6.88585887 79.52007308 13.43319815 81.4921875 21.171875 C81.83948012 23.00349921 81.83948012 23.00349921 83 24 C83.07205511 25.68608966 83.08386068 27.37500659 83.0625 29.0625 C83.05347656 29.98160156 83.04445313 30.90070313 83.03515625 31.84765625 C83.02355469 32.55792969 83.01195312 33.26820312 83 34 C83.66 34 84.32 34 85 34 C85.268125 33.360625 85.53625 32.72125 85.8125 32.0625 C87 30 87 30 90 29 C91.23632316 48.16300901 83.85015103 70.44006854 71.45703125 84.984375 C62.28955299 94.80245907 52.85140366 100.9019077 39.25 101.375 C27.50079531 101.15120563 18.74802732 96.72742413 10 89 C-2 76.13422819 -2 76.13422819 -2 70 C-2.66 70 -3.32 70 -4 70 C-8.82628737 58.48550729 -11.47516134 48.55993219 -12 36 C-9.61435923 36.57584432 -7.33317216 37.22227595 -5 38 C-5.165 36.845 -5.33 35.69 -5.5 34.5 C-6.70663255 23.28541513 -7.76352092 11.23349473 -1.3125 1.4375 C-0.879375 0.963125 -0.44625 0.48875 0 0 Z " fill="#FCFDFE" transform="translate(117,44)"/>
<path d="M0 0 C11.8096705 9.75660471 20.03875277 24.15884575 21.53466797 39.48974609 C22.50433709 55.88953951 21.80013009 75.0721578 14.2890625 89.97265625 C13.8146875 91.12765625 13.3403125 92.28265625 12.8515625 93.47265625 C12.3359375 94.62765625 11.8203125 95.78265625 11.2890625 96.97265625 C10.82113281 98.05933594 10.82113281 98.05933594 10.34375 99.16796875 C2.93895689 115.27209922 -9.00342127 127.23931767 -25.5546875 133.6796875 C-36.055144 137.27697542 -47.81138859 135.68097829 -57.7109375 130.97265625 C-69.65250482 123.70831627 -77.56824049 113.80053817 -84.7109375 101.97265625 C-85.27296875 101.12058594 -85.835 100.26851563 -86.4140625 99.390625 C-87.7109375 96.97265625 -87.7109375 96.97265625 -87.7109375 92.97265625 C-88.3709375 92.97265625 -89.0309375 92.97265625 -89.7109375 92.97265625 C-94.86103772 78.38179076 -97.08406327 63.95028036 -97.2109375 48.47265625 C-97.22922607 47.32885498 -97.24751465 46.18505371 -97.26635742 45.0065918 C-97.14565692 28.1390019 -90.2861417 14.56881034 -78.8359375 2.53515625 C-55.43029768 -19.49580921 -24.80772055 -18.55217142 0 0 Z M-78.8984375 26.97265625 C-85.0921602 37.2243352 -83.34208493 51.55462423 -81.7109375 62.97265625 C-82.3090625 62.64265625 -82.9071875 62.31265625 -83.5234375 61.97265625 C-85.76480221 60.76477637 -85.76480221 60.76477637 -88.7109375 60.97265625 C-88.67280328 72.83239976 -86.04184727 84.31083671 -80.7109375 94.97265625 C-80.0509375 94.97265625 -79.3909375 94.97265625 -78.7109375 94.97265625 C-78.47632813 95.82859375 -78.24171875 96.68453125 -78 97.56640625 C-76.56165667 101.36711953 -74.57264051 104.31013756 -72.0859375 107.47265625 C-71.63863281 108.04435547 -71.19132812 108.61605469 -70.73046875 109.20507812 C-64.33365667 117.16008802 -54.99534642 124.13885539 -44.7109375 125.97265625 C-36.90285851 126.47268101 -29.71151517 126.73010916 -22.7109375 122.97265625 C-21.93492187 122.58207031 -21.15890625 122.19148438 -20.359375 121.7890625 C-3.45390677 112.55124472 4.70588951 96.90887129 10.1015625 79.1796875 C12.55144814 70.70527598 13.63353355 62.79494254 13.2890625 53.97265625 C11.28922716 54.76383529 11.28922716 54.76383529 9.2890625 55.97265625 C8.9590625 56.96265625 8.6290625 57.95265625 8.2890625 58.97265625 C7.6290625 58.97265625 6.9690625 58.97265625 6.2890625 58.97265625 C6.32386719 58.33199219 6.35867187 57.69132812 6.39453125 57.03125 C6.57812564 51.16497219 5.95716074 47.30885273 3.2890625 41.97265625 C2.6331496 40.30993055 1.98798109 38.64294061 1.3515625 36.97265625 C-0.33521705 32.71337507 -2.33075787 28.88295136 -4.7109375 24.97265625 C-9.56162621 25.74316276 -13.42820473 27.65095586 -17.796875 29.81640625 C-33.64813183 36.10591298 -53.89051849 31.37078645 -69.08984375 25.7421875 C-73.17598353 24.54253096 -75.6599309 24.01173593 -78.8984375 26.97265625 Z " fill="#4887D8" transform="translate(193.7109375,19.02734375)"/>
<path d="M0 0 C1.16257324 0.01047363 2.32514648 0.02094727 3.52294922 0.03173828 C5.40820312 0.04140625 5.40820312 0.04140625 7.33154297 0.05126953 C9.30960938 0.07640625 9.30960938 0.07640625 11.32763672 0.10205078 C12.66747393 0.11208096 14.00731823 0.12120674 15.34716797 0.12939453 C18.63250244 0.15303003 21.91748137 0.18597844 25.20263672 0.22705078 C25.20263672 0.88705078 25.20263672 1.54705078 25.20263672 2.22705078 C25.7964917 2.33146484 26.39034668 2.43587891 27.00219727 2.54345703 C30.98522332 3.78083337 33.15893699 6.69651336 35.20263672 10.22705078 C36.0111386 13.59921558 36.00093946 16.77412807 35.89013672 20.22705078 C35.90496094 21.09072266 35.91978516 21.95439453 35.93505859 22.84423828 C35.85344301 29.16224449 34.43383446 32.51576252 30.20263672 37.22705078 C29.54263672 37.22705078 28.88263672 37.22705078 28.20263672 37.22705078 C28.20263672 37.88705078 28.20263672 38.54705078 28.20263672 39.22705078 C27.21263672 39.22705078 26.22263672 39.22705078 25.20263672 39.22705078 C25.20263672 39.88705078 25.20263672 40.54705078 25.20263672 41.22705078 C15.63263672 41.22705078 6.06263672 41.22705078 -3.79736328 41.22705078 C-5.40086222 38.0200529 -4.96038688 34.53103869 -4.96533203 31.00830078 C-4.96866043 30.19462036 -4.97198883 29.38093994 -4.97541809 28.54260254 C-4.98048403 26.82105068 -4.98282652 25.09948899 -4.98266602 23.37792969 C-4.98485451 20.73762955 -5.00301895 18.09774581 -5.02197266 15.45751953 C-5.02490619 13.78694805 -5.02689125 12.11637457 -5.02783203 10.44580078 C-5.03861031 9.25670105 -5.03861031 9.25670105 -5.04960632 8.0435791 C-5.01760501 0.40725892 -5.01760501 0.40725892 0 0 Z " fill="#548FDA" transform="translate(229.79736328125,100.77294921875)"/>
<path d="M0 0 C1.25159912 0.00523682 2.50319824 0.01047363 3.79272461 0.01586914 C4.78942421 0.01799156 4.78942421 0.01799156 5.80625916 0.02015686 C7.93590735 0.02577021 10.06545175 0.03832485 12.19506836 0.05102539 C13.63582205 0.05603868 15.07657739 0.06060188 16.51733398 0.06469727 C20.05577938 0.07574394 23.59416375 0.09301747 27.13256836 0.11352539 C27.13256836 0.77352539 27.13256836 1.43352539 27.13256836 2.11352539 C27.77194336 2.25790039 28.41131836 2.40227539 29.07006836 2.55102539 C31.13256836 3.11352539 31.13256836 3.11352539 32.13256836 4.11352539 C32.09105144 7.69907739 32.0041788 11.27425662 31.82983398 14.85571289 C31.72786072 17.42338883 31.72786072 17.42338883 32.13256836 21.11352539 C34.05995341 22.80791352 34.05995341 22.80791352 36.13256836 24.11352539 C36.66381836 26.85571289 36.66381836 26.85571289 36.63256836 29.98852539 C36.64288086 31.01719727 36.65319336 32.04586914 36.66381836 33.10571289 C35.98701738 36.93760078 34.94260456 38.42353555 32.13256836 41.11352539 C29.33673038 41.58643308 27.16019516 41.74802163 24.37475586 41.67211914 C23.25836227 41.66862206 23.25836227 41.66862206 22.11941528 41.66505432 C20.55092864 41.6553337 18.98247625 41.63358478 17.41430664 41.60058594 C15.00867015 41.55104808 12.60507579 41.5390977 10.19897461 41.53344727 C8.67421318 41.51936562 7.14946955 41.50316276 5.62475586 41.48461914 C4.90391815 41.47925644 4.18308044 41.47389374 3.44039917 41.46836853 C-1.63410251 41.34685452 -1.63410251 41.34685452 -3.86743164 39.11352539 C-4.05504194 36.25638075 -4.12300482 33.49786553 -4.09790039 30.64086914 C-4.09744217 29.802621 -4.09698395 28.96437286 -4.09651184 28.10072327 C-4.09348888 26.32787664 -4.08560127 24.55503269 -4.07324219 22.78222656 C-4.05498229 20.05858017 -4.05273249 17.33527348 -4.05297852 14.61157227 C-4.04806356 12.89216826 -4.04223534 11.17276658 -4.03540039 9.45336914 C-4.03428757 8.63360092 -4.03317474 7.8138327 -4.0320282 6.96922302 C-3.97441031 0.15735213 -3.97441031 0.15735213 0 0 Z " fill="#528DDA" transform="translate(349.867431640625,100.886474609375)"/>
<path d="M0 0 C0.69416016 -0.00773437 1.38832031 -0.01546875 2.10351562 -0.0234375 C7.61475334 -0.00250212 11.07020948 0.61453297 15.234375 4.26171875 C17.67640623 8.54647538 17.3750408 12.22611131 17.1875 17.0625 C17.16945313 17.94615234 17.15140625 18.82980469 17.1328125 19.74023438 C17.08588513 21.91062543 17.01414731 24.08045519 16.9375 26.25 C16.2775 26.25 15.6175 26.25 14.9375 26.25 C14.4425 27.735 14.4425 27.735 13.9375 29.25 C13.2775 29.25 12.6175 29.25 11.9375 29.25 C11.9375 29.91 11.9375 30.57 11.9375 31.25 C8.04180865 31.33732726 4.14637018 31.39050185 0.25 31.4375 C-0.85279297 31.46263672 -1.95558594 31.48777344 -3.09179688 31.51367188 C-4.15849609 31.52333984 -5.22519531 31.53300781 -6.32421875 31.54296875 C-7.30350342 31.5586792 -8.28278809 31.57438965 -9.29174805 31.59057617 C-12.60950659 31.18276287 -14.43989717 30.31072027 -17.0625 28.25 C-18.21382093 25.5130421 -18.18120298 22.86841682 -18.16015625 19.921875 C-18.15532227 18.72304687 -18.15532227 18.72304687 -18.15039062 17.5 C-18.14201172 16.675 -18.13363281 15.85 -18.125 15 C-18.12048828 14.15953125 -18.11597656 13.3190625 -18.11132812 12.453125 C-18.09957961 10.38538599 -18.08164522 8.31768376 -18.0625 6.25 C-17.4025 6.25 -16.7425 6.25 -16.0625 6.25 C-15.85625 5.63125 -15.65 5.0125 -15.4375 4.375 C-12.19464152 -0.63669038 -5.41250944 -0.06064436 0 0 Z " fill="#558FDA" transform="translate(288.0625,110.75)"/>
<path d="M0 0 C0.69416016 -0.00773437 1.38832031 -0.01546875 2.10351562 -0.0234375 C7.41150061 -0.00327421 10.82505244 0.85498746 15.21484375 3.75390625 C17.92436011 7.67994016 17.55684083 11.52989514 17.5 16.1875 C17.53577148 17.52844727 17.53577148 17.52844727 17.57226562 18.89648438 C17.56285626 23.12129035 17.29022061 25.64999569 15.12109375 29.33984375 C10.31451361 32.22379183 5.93967168 31.97803692 0.4375 31.875 C-1.11130859 31.90400391 -1.11130859 31.90400391 -2.69140625 31.93359375 C-10.23234863 31.88494251 -10.23234863 31.88494251 -14.21875 28.8359375 C-16.51314715 25.61794827 -17.18933467 24.06113643 -17.1953125 20.1875 C-17.19660156 19.39085937 -17.19789063 18.59421875 -17.19921875 17.7734375 C-17.19535156 16.94070312 -17.19148438 16.10796875 -17.1875 15.25 C-17.19330078 14.00089844 -17.19330078 14.00089844 -17.19921875 12.7265625 C-17.19792969 11.92992188 -17.19664062 11.13328125 -17.1953125 10.3125 C-17.19418457 9.58160156 -17.19305664 8.85070312 -17.19189453 8.09765625 C-17.0625 6.25 -17.0625 6.25 -16.0625 4.25 C-15.4025 4.25 -14.7425 4.25 -14.0625 4.25 C-14.0625 3.59 -14.0625 2.93 -14.0625 2.25 C-9.32048766 0.37991062 -5.04252126 -0.05649884 0 0 Z " fill="#548FDA" transform="translate(407.0625,110.75)"/>
<path d="M0 0 C1.10118164 -0.0309375 1.10118164 -0.0309375 2.22460938 -0.0625 C7.45295606 -0.09961337 11.07049851 0.74546687 15.6875 3.25 C18.51526054 7.49164081 18.0930583 11.13499722 18.125 16.125 C18.15787109 17.02347656 18.19074219 17.92195313 18.22460938 18.84765625 C18.25914458 23.0986264 18.05837692 25.61855007 15.875 29.3359375 C11.08211832 32.21401596 6.74282281 32.05510042 1.25 32 C0.22583984 32.03609375 -0.79832031 32.0721875 -1.85351562 32.109375 C-5.77533383 32.109375 -8.97712182 32.08893846 -12.35620117 29.96606445 C-15.43126593 26.83645309 -16.64195965 24.06500426 -16.93359375 19.69921875 C-16.90343103 18.11108623 -16.84175991 16.52326631 -16.75 14.9375 C-16.73130859 14.12732422 -16.71261719 13.31714844 -16.69335938 12.48242188 C-16.51375333 6.65250665 -16.51375333 6.65250665 -15.3125 4.25 C-14.6525 4.25 -13.9925 4.25 -13.3125 4.25 C-12.9825 3.26 -12.6525 2.27 -12.3125 1.25 C-8.3722651 -0.21008973 -4.15275234 0.02871393 0 0 Z " fill="#548FDA" transform="translate(445.3125,110.75)"/>
<path d="M0 0 C1.02158203 0.00644531 2.04316406 0.01289062 3.09570312 0.01953125 C4.15080078 0.03628906 5.20589844 0.05304688 6.29296875 0.0703125 C7.36740234 0.07933594 8.44183594 0.08835937 9.54882812 0.09765625 C12.19293729 0.12115944 14.83658747 0.15401675 17.48046875 0.1953125 C17.48046875 2.8353125 17.48046875 5.4753125 17.48046875 8.1953125 C7.08546875 8.6903125 7.08546875 8.6903125 -3.51953125 9.1953125 C-3.84953125 13.4853125 -4.17953125 17.7753125 -4.51953125 22.1953125 C2.74046875 22.1953125 10.00046875 22.1953125 17.48046875 22.1953125 C17.48046875 25.1653125 17.48046875 28.1353125 17.48046875 31.1953125 C13.39750915 31.34049432 9.31521234 31.42934597 5.23046875 31.5078125 C4.07160156 31.54970703 2.91273438 31.59160156 1.71875 31.63476562 C-6.86141403 31.75875643 -6.86141403 31.75875643 -10.31640625 28.80078125 C-11.51953125 26.1953125 -11.51953125 26.1953125 -11.51953125 24.1953125 C-12.17953125 24.1953125 -12.83953125 24.1953125 -13.51953125 24.1953125 C-13.54642574 21.23691895 -13.56631866 18.27876823 -13.58203125 15.3203125 C-13.59041016 14.47855469 -13.59878906 13.63679688 -13.60742188 12.76953125 C-13.61064453 11.96386719 -13.61386719 11.15820312 -13.6171875 10.328125 C-13.62242432 9.58449707 -13.62766113 8.84086914 -13.63305664 8.07470703 C-13.51953125 6.1953125 -13.51953125 6.1953125 -12.51953125 4.1953125 C-11.85953125 4.1953125 -11.19953125 4.1953125 -10.51953125 4.1953125 C-10.51953125 3.5353125 -10.51953125 2.8753125 -10.51953125 2.1953125 C-6.85089074 0.51373104 -4.02537078 -0.04497621 0 0 Z " fill="#5F96DD" transform="translate(322.51953125,110.8046875)"/>
<path d="M0 0 C4.7953125 -0.1546875 4.7953125 -0.1546875 9.6875 -0.3125 C11.18543091 -0.38078003 11.18543091 -0.38078003 12.71362305 -0.45043945 C17.03711402 -0.51795997 19.39035361 -0.38830492 23.109375 1.98046875 C25.62842626 6.00366426 25.70938887 8.97219592 25.5625 13.625 C25.57345703 14.388125 25.58441406 15.15125 25.59570312 15.9375 C25.52280263 21.47793778 25.52280263 21.47793778 23.27612305 23.72143555 C20.6107641 25.21864512 19.05409423 25.3485505 16.015625 25.29296875 C15.17290039 25.28547607 14.33017578 25.2779834 13.46191406 25.27026367 C12.40198242 25.24295166 11.34205078 25.21563965 10.25 25.1875 C6.8675 25.125625 3.485 25.06375 0 25 C0 16.75 0 8.5 0 0 Z " fill="#F7F9FD" transform="translate(233,109)"/>
<path d="M0 0 C3.3 0 6.6 0 10 0 C10 4.29 10 8.58 10 13 C13.96 13 17.92 13 22 13 C22 15.97 22 18.94 22 22 C18.04 22 14.08 22 10 22 C10 25.96 10 29.92 10 34 C6.7 34 3.4 34 0 34 C0 30.37 0 26.74 0 23 C-3.96 23 -7.92 23 -12 23 C-12 19.37 -12 15.74 -12 12 C-8.04 12 -4.08 12 0 12 C0 8.04 0 4.08 0 0 Z " fill="#F3F7FC" transform="translate(210,199)"/>
<path d="M0 0 C7.26 0 14.52 0 22 0 C22 6 22 6 20.484375 7.86328125 C17.07326135 9.42402665 13.91835557 9.32272294 10.25 9.1875 C9.55261719 9.17396484 8.85523438 9.16042969 8.13671875 9.14648438 C6.42414459 9.1112945 4.71197059 9.05749155 3 9 C3 11.31 3 13.62 3 16 C3.88522339 15.97643433 3.88522339 15.97643433 4.78833008 15.95239258 C7.46295586 15.89002061 10.13742864 15.85100343 12.8125 15.8125 C13.74126953 15.78736328 14.67003906 15.76222656 15.62695312 15.73632812 C16.51962891 15.72666016 17.41230469 15.71699219 18.33203125 15.70703125 C19.56530151 15.68346558 19.56530151 15.68346558 20.82348633 15.65942383 C23 16 23 16 24.79174805 17.14331055 C26 19 26 19 26 25 C17.42 25 8.84 25 0 25 C0 16.75 0 8.5 0 0 Z " fill="#CBDDF3" transform="translate(353,109)"/>
<path d="M0 0 C-1.07230715 3.21692145 -1.79457696 3.95434602 -4.3125 6.0625 C-5.20388672 6.82240234 -5.20388672 6.82240234 -6.11328125 7.59765625 C-8 9 -8 9 -10.15234375 10.05078125 C-12.52128721 11.26780717 -13.03060676 12.5765169 -14 15 C-13.2575 15.680625 -13.2575 15.680625 -12.5 16.375 C-11 18 -11 18 -11 20 C-10.42765625 20.2578125 -9.8553125 20.515625 -9.265625 20.78125 C-6.78871005 22.11365942 -4.8658834 23.65056118 -2.75 25.5 C-1.69039063 26.41265625 -1.69039063 26.41265625 -0.609375 27.34375 C1 29 1 29 1 31 C-8.97968824 31.78649032 -8.97968824 31.78649032 -13 28.6875 C-13.66 27.800625 -14.32 26.91375 -15 26 C-15.598125 25.443125 -16.19625 24.88625 -16.8125 24.3125 C-18 23 -18 23 -18 21 C-18.66 21 -19.32 21 -20 21 C-23.17575561 18.66488558 -23.92891223 17.44232388 -24.5625 13.5 C-24 10 -24 10 -21.625 7.5625 C-19 6 -19 6 -17 6 C-17 5.34 -17 4.68 -17 4 C-11.20200116 -0.0333905 -6.98629919 -0.50604984 0 0 Z " fill="#5791DB" transform="translate(503,111)"/>
<path d="M0 0 C2.31 0 4.62 0 7 0 C7 14.52 7 29.04 7 44 C4.69 44 2.38 44 0 44 C0 29.48 0 14.96 0 0 Z " fill="#548FDA" transform="translate(469,98)"/>
<path d="M0 0 C0.74886475 0.00523682 1.49772949 0.01047363 2.26928711 0.01586914 C3.07817383 0.0190918 3.88706055 0.02231445 4.72045898 0.02563477 C5.5705957 0.03401367 6.42073242 0.04239258 7.29663086 0.05102539 C8.15063477 0.05553711 9.00463867 0.06004883 9.88452148 0.06469727 C12.00108749 0.07652166 14.11761771 0.0944577 16.23413086 0.11352539 C16.23413086 5.39352539 16.23413086 10.67352539 16.23413086 16.11352539 C9.96413086 16.11352539 3.69413086 16.11352539 -2.76586914 16.11352539 C-2.78649414 13.65915039 -2.80711914 11.20477539 -2.82836914 8.67602539 C-2.83747314 7.90202393 -2.84657715 7.12802246 -2.85595703 6.33056641 C-2.86311827 4.59130822 -2.81611616 2.85207235 -2.76586914 1.11352539 C-1.76586914 0.11352539 -1.76586914 0.11352539 0 0 Z " fill="#EBF2FA" transform="translate(280.765869140625,117.886474609375)"/>
<path d="M0 0 C1.1127832 -0.01836914 1.1127832 -0.01836914 2.24804688 -0.03710938 C4.18763629 -0.04238478 6.1267371 0.06561098 8.0625 0.1875 C10.0625 2.1875 10.0625 2.1875 10.2578125 5.4453125 C10.19270833 9.02604167 10.12760417 12.60677083 10.0625 16.1875 C3.7925 16.1875 -2.4775 16.1875 -8.9375 16.1875 C-8.958125 13.733125 -8.97875 11.27875 -9 8.75 C-9.009104 7.97599854 -9.01820801 7.20199707 -9.02758789 6.40454102 C-9.03474913 4.66528283 -8.98774702 2.92604696 -8.9375 1.1875 C-6.89483571 -0.85516429 -2.80058566 0.00242056 0 0 Z " fill="#ECF3FB" transform="translate(445.9375,117.8125)"/>
<path d="M0 0 C1.1127832 -0.01836914 1.1127832 -0.01836914 2.24804688 -0.03710938 C4.18763629 -0.04238478 6.1267371 0.06561098 8.0625 0.1875 C10.0625 2.1875 10.0625 2.1875 10.2578125 5.4453125 C10.19270833 9.02604167 10.12760417 12.60677083 10.0625 16.1875 C3.7925 16.1875 -2.4775 16.1875 -8.9375 16.1875 C-8.958125 13.733125 -8.97875 11.27875 -9 8.75 C-9.009104 7.97599854 -9.01820801 7.20199707 -9.02758789 6.40454102 C-9.03474913 4.66528283 -8.98774702 2.92604696 -8.9375 1.1875 C-6.89483571 -0.85516429 -2.80058566 0.00242056 0 0 Z " fill="#EDF3FB" transform="translate(406.9375,117.8125)"/>
<path d="M0 0 C3.47914941 -0.02887814 6.95826831 -0.04675687 10.4375 -0.0625 C11.92733398 -0.07506836 11.92733398 -0.07506836 13.44726562 -0.08789062 C14.39150391 -0.09111328 15.33574219 -0.09433594 16.30859375 -0.09765625 C17.62041626 -0.10551147 17.62041626 -0.10551147 18.95874023 -0.11352539 C21 0 21 0 22 1 C22 2.98 22 4.96 22 7 C14.74 7 7.48 7 0 7 C0 4.69 0 2.38 0 0 Z " fill="#FBFCFE" transform="translate(355,126)"/>
<path d="M0 0 C6.27 0 12.54 0 19 0 C19 1.98 19 3.96 19 6 C9.595 6.495 9.595 6.495 0 7 C0 4.69 0 2.38 0 0 Z " fill="#FEFEFE" transform="translate(355,110)"/>
<path d="M0 0 C0.33 0 0.66 0 1 0 C1.33 7.92 1.66 15.84 2 24 C2.33 24 2.66 24 3 24 C3.1546875 25.423125 3.1546875 25.423125 3.3125 26.875 C3.68539295 30.29107501 3.68539295 30.29107501 7 32 C7 32.66 7 33.32 7 34 C7.66 34 8.32 34 9 34 C8.67 34.66 8.34 35.32 8 36 C7.566875 35.525625 7.13375 35.05125 6.6875 34.5625 C4.97690387 32.76313043 4.97690387 32.76313043 2 32 C2 35.96 2 39.92 2 44 C1.34 44 0.68 44 0 44 C0 29.48 0 14.96 0 0 Z " fill="#B4CEEE" transform="translate(476,98)"/>
<path d="M0 0 C0.66 0.33 1.32 0.66 2 1 C2 7.27 2 13.54 2 20 C1.34 20 0.68 20 0 20 C-0.33 20.99 -0.66 21.98 -1 23 C-2.27465247 20.45069506 -1.94952207 19.03650962 -1.66015625 16.2109375 C-1.56669922 15.26992187 -1.47324219 14.32890625 -1.37695312 13.359375 C-1.27318359 12.37453125 -1.16941406 11.3896875 -1.0625 10.375 C-0.96259766 9.38242188 -0.86269531 8.38984375 -0.75976562 7.3671875 C-0.51177235 4.91087319 -0.25829747 2.45524863 0 0 Z " fill="#83ADE4" transform="translate(303,117)"/>
<path d="M0 0 C-1.53218685 3.63061667 -3.7183144 5.9863773 -6.5 8.75 C-7.69109375 9.94882812 -7.69109375 9.94882812 -8.90625 11.171875 C-11 13 -11 13 -13 13 C-11.46781315 9.36938333 -9.2816856 7.0136227 -6.5 4.25 C-5.7059375 3.45078125 -4.911875 2.6515625 -4.09375 1.828125 C-2 0 -2 0 0 0 Z " fill="#6097DD" transform="translate(122,17)"/>
<path d="M0 0 C2.475 0.99 2.475 0.99 5 2 C5.33 2.99 5.66 3.98 6 5 C6.66 5 7.32 5 8 5 C7.67 5.66 7.34 6.32 7 7 C6.566875 6.525625 6.13375 6.05125 5.6875 5.5625 C3.97690387 3.76313043 3.97690387 3.76313043 1 3 C1 6.96 1 10.92 1 15 C0.34 14.67 -0.32 14.34 -1 14 C-0.67 9.38 -0.34 4.76 0 0 Z " fill="#D8E5F6" transform="translate(477,127)"/>
<path d="M0 0 C0.33 0.99 0.66 1.98 1 3 C-1.97 5.475 -1.97 5.475 -5 8 C-4.64950425 4.75791433 -4.43778819 3.38472296 -1.9375 1.1875 C-1.298125 0.795625 -0.65875 0.40375 0 0 Z " fill="#6E9FDF" transform="translate(484,117)"/>
</svg>
